<svg width="1783" height="1760" viewBox="0 0 1783 1760" fill="none" xmlns="http://www.w3.org/2000/svg">
<path d="M375.117 56.1788C372.984 57.6455 336.584 87.1122 294.45 121.912C240.85 166.045 217.65 185.912 217.384 187.912C217.117 189.912 240.184 230.445 287.65 311.512L358.317 432.179L319.517 527.246C298.317 579.512 280.45 622.712 279.917 623.246C279.517 623.779 217.384 634.446 141.784 646.979C53.2504 661.646 3.78377 670.312 2.58377 671.512C1.11711 673.112 0.717106 691.646 0.183772 780.579C-0.216228 846.579 0.0504391 888.312 0.850439 889.512C2.18377 891.379 11.6504 894.046 56.4504 905.512C84.4504 912.712 188.317 939.246 250.45 955.112C270.584 960.312 287.25 964.579 287.25 964.712C287.517 964.979 344.184 1103.11 357.117 1135.25L363.517 1150.71L308.584 1221.25C278.45 1259.91 238.05 1311.91 218.717 1336.58C195.384 1366.58 183.784 1382.45 183.784 1384.58C183.784 1386.98 200.05 1404.71 247.917 1455.11C344.184 1555.78 340.85 1552.58 344.184 1551.51C345.784 1550.98 402.45 1513.25 470.05 1467.51L593.117 1384.45L688.717 1426.85L784.45 1469.25L786.05 1474.45C786.85 1477.38 790.05 1490.45 792.984 1503.65C805.25 1558.31 845.25 1733.91 847.917 1744.71C849.517 1751.11 851.651 1757.38 852.717 1758.45C854.451 1760.05 868.451 1760.31 959.517 1759.65C1017.25 1759.25 1066.45 1758.58 1068.85 1758.18C1071.78 1757.78 1073.65 1756.45 1074.45 1754.58C1075.12 1752.98 1078.72 1736.05 1082.45 1716.98C1102.05 1616.71 1131.92 1465.91 1132.72 1463.11C1133.92 1459.78 1126.05 1462.98 1269.38 1406.31L1324.98 1384.31L1427.38 1450.45C1483.65 1486.85 1539.38 1522.85 1551.12 1530.45C1562.85 1538.05 1573.78 1544.31 1575.38 1544.31C1577.78 1544.31 1590.18 1528.05 1637.25 1463.38C1669.65 1418.85 1696.72 1380.98 1697.52 1379.38C1698.58 1376.85 1698.45 1375.65 1696.32 1372.98C1694.45 1370.58 1482.18 1169.91 1418.85 1110.85C1415.12 1107.25 1410.72 1104.31 1409.25 1104.31C1407.65 1104.31 1399.38 1110.58 1389.52 1119.38C1296.85 1201.25 1201.92 1259.38 1107.92 1291.51C1019.25 1321.91 929.384 1329.65 845.784 1314.31C669.384 1281.78 523.117 1147.38 460.717 960.312C442.184 904.712 432.984 846.979 432.717 785.646C432.717 736.046 437.117 698.979 449.117 650.979C479.65 529.112 558.85 416.712 670.717 336.445C677.117 331.912 683.384 327.245 684.45 326.179C686.184 324.445 686.45 313.779 686.45 244.445C686.45 161.379 686.45 161.645 680.85 161.645C679.517 161.645 662.85 169.379 643.784 178.979C624.717 188.445 608.45 196.312 607.65 196.312C606.984 196.312 556.05 164.445 494.717 125.379C433.384 86.4455 382.184 54.3122 381.117 54.0455C380.05 53.7788 377.384 54.7122 375.117 56.1788Z" fill="black"/>
<rect x="1431" y="958" width="254" height="254" transform="rotate(180 1431 958)" fill="black"/>
<rect x="1783" y="958" width="254" height="254" transform="rotate(180 1783 958)" fill="black"/>
<rect x="1079" y="958" width="254" height="254" transform="rotate(180 1079 958)" fill="black"/>
<rect x="1431" y="606" width="254" height="254" transform="rotate(180 1431 606)" fill="black"/>
<rect x="1079" y="606" width="254" height="254" transform="rotate(180 1079 606)" fill="black"/>
<rect x="1079" y="254" width="254" height="254" transform="rotate(180 1079 254)" fill="black"/>
</svg>
